<?xml version="1.0" encoding="utf-8"?>
<svg version="1.0" width="512.000000pt" height="512.000000pt" viewBox="0 0 512.000000 512.000000" preserveAspectRatio="xMidYMid meet" xmlns="http://www.w3.org/2000/svg">
  <g transform="translate(0.000000,512.000000) scale(0.100000,-0.100000)" fill="#000000" stroke="none">
    <path d="M2320 4823 c-84 -7 -292 -43 -391 -68 -225 -57 -511 -178 -698 -294 -402 -250 -685 -591 -816 -982 -36 -108 -75 -308 -75 -382 l0 -42 -82 81 c-160 155 -185 168 -235 118 -23 -23 -25 -31 -19 -75 37 -278 214 -622 479 -931 41 -48 54 -58 80 -58 39 1 53 11 98 75 88 126 163 297 209 479 27 107 70 368 70 426 0 33 -40 70 -75 70 -19 0 -295 -151 -332 -182 -25 -20 -25 0 -3 99 113 502 362 863 790 1146 263 173 584 287 970 344 87 13 197 17 454 19 356 2 355 1 356 47 0 35 -35 53 -146 75 -60 12 -149 26 -199 32 -84 9 -334 11 -435 3z m-1960 -1934 c19 -13 43 -32 52 -41 29 -29 30 -29 216 86 67 42 125 76 128 76 20 0 -49 -297 -96 -416 -32 -81 -84 -179 -100 -189 -10 -6 -103 114 -171 220 -86 134 -189 344 -189 385 0 6 28 -13 63 -42 34 -30 78 -65 97 -79z" style="fill: rgb(255, 249, 249);"/>
    <path d="M3439 4669 c-15 -6 -32 -23 -39 -39 -15 -37 -4 -60 83 -172 125 -161 275 -402 413 -666 81 -153 96 -172 141 -172 33 0 72 28 74 53 0 6 2 64 4 127 2 63 7 141 11 172 l6 58 46 -33 c66 -46 216 -190 277 -267 294 -369 453 -841 510 -1513 8 -92 17 -172 20 -177 10 -16 61 -12 76 6 22 26 25 388 4 564 -55 481 -210 881 -470 1215 -71 91 -212 229 -302 295 l-61 45 56 65 c92 107 154 170 202 202 57 39 70 55 70 89 0 50 -27 68 -130 89 -172 35 -341 51 -640 60 -345 11 -318 11 -351 -1z m531 -149 c154 -10 330 -30 330 -37 0 -5 -222 -260 -254 -292 -20 -19 -26 -41 -37 -123 -7 -54 -15 -101 -19 -103 -3 -2 -40 55 -81 128 -61 107 -189 307 -265 415 l-16 22 98 0 c55 0 164 -5 244 -10z" style="fill: rgb(255, 249, 249);"/>
    <path d="M752 1698 c-17 -17 -15 -44 9 -161 71 -353 268 -652 573 -871 246 -176 569 -301 911 -353 151 -22 620 -25 790 -5 587 72 1037 251 1338 532 l76 71 6 -28 c49 -240 144 -433 214 -433 31 0 68 37 115 119 58 98 114 227 155 353 32 102 181 686 181 713 0 26 -38 55 -72 55 -18 0 -143 -36 -278 -79 -356 -116 -658 -205 -795 -236 -65 -14 -127 -31 -136 -35 -37 -20 -30 -112 10 -124 9 -3 70 -17 136 -31 216 -46 364 -81 370 -86 7 -8 -118 -105 -289 -226 -390 -276 -862 -413 -1422 -413 -368 0 -665 60 -939 189 -187 88 -336 193 -472 332 -104 106 -161 179 -230 296 -64 110 -90 168 -138 305 -20 56 -41 108 -47 115 -13 16 -50 17 -66 1z m4184 -205 c-3 -10 -28 -109 -55 -219 -28 -111 -65 -244 -82 -295 -33 -101 -117 -289 -129 -289 -21 0 -71 268 -83 439 -1 24 -10 40 -29 54 -25 19 -31 19 -67 7 -36 -12 -48 -10 -180 30 -78 24 -141 46 -141 49 0 3 48 19 107 35 60 16 229 69 378 117 148 48 274 87 278 88 5 1 6 -7 3 -16z" style="fill: rgb(255, 249, 249);"/>
  </g>
</svg>